<svg xmlns="http://www.w3.org/2000/svg" viewBox="0 0 140 310"><defs><filter id="sh" x="-20%" y="-20%" width="140%" height="150%"><feDropShadow dx="0" dy="6" stdDeviation="6" flood-color="#5a3a6a" flood-opacity=".28"/></filter><linearGradient id="gb" x1="0" y1="0" x2="0" y2="1"><stop offset="0" stop-color="#ffc6dc"/><stop offset="1" stop-color="#d9739f"/></linearGradient><linearGradient id="gn" x1="0" y1="0" x2="0" y2="1"><stop offset="0" stop-color="#f6dcb4"/><stop offset="1" stop-color="#c9925a"/></linearGradient></defs><g filter="url(#sh)">
  <rect x="58" y="10" width="24" height="36" rx="6" fill="#c9925a" stroke="#8a5a2e" stroke-width="4"/>
  <rect x="62" y="40" width="16" height="140" fill="url(#gn)" stroke="#8a5a2e" stroke-width="4"/>
  <path d="M70 160 C30 160 18 196 34 222 C12 246 22 296 70 300 C118 296 128 246 106 222 C122 196 110 160 70 160 Z" fill="url(#gb)" stroke="#b9618f" stroke-width="6"/>
  <circle cx="70" cy="228" r="16" fill="#7a3e63"/>
  <rect x="50" y="268" width="40" height="8" rx="3" fill="#7a3e63"/>
  <path d="M66 46 L66 270 M74 46 L74 270" stroke="#fff6e8" stroke-width="1.5"/>
  <path d="M40 190 C36 210 40 222 48 232" fill="none" stroke="#fff" stroke-opacity=".6" stroke-width="6" stroke-linecap="round"/>
</g></svg>
