<svg xmlns="http://www.w3.org/2000/svg" viewBox="0 0 300 300"><defs><filter id="sh" x="-30%" y="-30%" width="160%" height="170%"><feDropShadow dx="0" dy="7" stdDeviation="6" flood-color="#6f466e" flood-opacity=".24"/></filter><linearGradient id="pink" x1="0" y1="0" x2="1" y2="1"><stop offset="0" stop-color="#ffd6e6"/><stop offset="0.55" stop-color="#f39cc2"/><stop offset="1" stop-color="#d277aa"/></linearGradient><linearGradient id="fl" x1="0" y1="0" x2="0" y2="1"><stop offset="0" stop-color="#fff7c0"/><stop offset="0.5" stop-color="#ffc94d"/><stop offset="1" stop-color="#f08a3c"/></linearGradient><linearGradient id="gold" x1="0" y1="0" x2="1" y2="1"><stop offset="0" stop-color="#fff1bf"/><stop offset="0.5" stop-color="#f1c66a"/><stop offset="1" stop-color="#c99236"/></linearGradient></defs><g filter="url(#sh)">
  <ellipse cx="150" cy="128" rx="44" ry="20" fill="#fff4b8" opacity=".55"/>
  <path d="M150 34 C176 66 178 94 150 112 C122 94 124 66 150 34 Z" fill="url(#fl)" stroke="#df8a32" stroke-width="5"/>
  <path d="M150 70 C160 84 158 96 150 102 C142 96 140 84 150 70 Z" fill="#fff8d6"/>
  <path d="M150 112 L150 128" stroke="#6b4c55" stroke-width="5" stroke-linecap="round"/>
  <path d="M112 132 Q150 120 188 132 L188 246 L112 246 Z" fill="url(#pink)" stroke="#b9618f" stroke-width="6" stroke-linejoin="round"/>
  <path d="M124 140 L124 236" stroke="#fff" stroke-opacity=".7" stroke-width="8" stroke-linecap="round"/>
  <path d="M172 132 Q178 150 170 160" fill="none" stroke="#fbd6e6" stroke-width="7" stroke-linecap="round"/>
  <ellipse cx="150" cy="252" rx="78" ry="18" fill="url(#gold)" stroke="#b5832f" stroke-width="5"/>
</g></svg>
